<?xml version="1.0" standalone="no"?>
<!DOCTYPE svg PUBLIC "-//W3C//DTD SVG 20010904//EN"
 "http://www.w3.org/TR/2001/REC-SVG-20010904/DTD/svg10.dtd">
<svg version="1.0" xmlns="http://www.w3.org/2000/svg"
 width="640.000000pt" height="427.000000pt" viewBox="0 0 640.000000 427.000000"
 preserveAspectRatio="xMidYMid meet">

<g transform="translate(0.000000,427.000000) scale(0.100000,-0.100000)"
fill="#000000" stroke="none">
<path d="M0 2135 l0 -2135 3200 0 3200 0 0 2135 0 2135 -3200 0 -3200 0 0
-2135z m3698 1458 c15 -3 35 -14 45 -24 11 -10 25 -15 33 -12 8 3 15 0 15 -6
1 -6 2 -15 3 -21 0 -5 10 -16 21 -24 12 -10 15 -15 7 -16 -10 0 -10 -3 2 -15
8 -8 19 -15 25 -15 6 0 11 -7 11 -15 0 -7 8 -19 18 -24 9 -6 13 -11 8 -11 -4
0 6 -14 23 -32 17 -17 31 -35 31 -40 0 -4 8 -9 18 -9 15 -1 14 -2 -2 -6 -15
-4 -16 -7 -5 -14 11 -7 11 -9 1 -9 -7 0 -10 -4 -7 -10 3 -5 17 -10 30 -10 22
0 23 -3 20 -43 -3 -39 0 -45 29 -61 25 -15 28 -20 15 -25 -12 -4 -14 -12 -8
-27 4 -12 12 -25 18 -29 6 -3 11 -16 11 -28 0 -16 -3 -18 -12 -9 -7 7 -21 12
-32 12 -19 -1 -18 -3 7 -18 33 -21 34 -35 2 -60 -13 -11 -23 -21 -22 -23 1 -2
-4 2 -10 10 -11 13 -13 13 -13 -2 0 -17 -34 -23 -102 -18 -14 1 -29 -3 -33 -8
-4 -7 7 -12 27 -13 21 -1 13 -3 -22 -7 -55 -6 -75 3 -49 21 10 7 2 8 -23 4
-21 -2 -38 -3 -38 -1 0 4 93 31 130 38 14 2 0 5 -30 7 -50 2 -52 3 -22 10 52
12 50 20 -6 20 -56 0 -78 16 -37 26 28 7 23 19 -10 27 -11 3 0 6 25 7 46 2 46
4 -1 14 -26 6 -32 27 -15 55 11 18 -9 29 -40 23 -19 -3 -23 -1 -18 12 4 11 0
16 -14 16 -15 0 -20 5 -17 20 2 11 1 19 -3 19 -23 -4 -32 5 -38 36 -3 19 -10
35 -14 35 -11 0 -33 57 -26 68 3 5 -1 15 -8 22 -8 6 -14 23 -12 38 1 15 -1 32
-6 38 -4 6 -1 34 7 62 15 50 36 66 73 56 8 -2 26 -7 40 -11z m-261 -190 c-3
-10 -5 -4 -5 12 0 17 2 24 5 18 2 -7 2 -21 0 -30z m10 -95 c-3 -8 -6 -5 -6 6
-1 11 2 17 5 13 3 -3 4 -12 1 -19z m38 -245 c14 -48 31 -97 39 -108 22 -35 26
-55 12 -55 -26 0 -87 211 -92 315 l-3 70 9 -67 c6 -37 21 -107 35 -155z m122
-5 c-3 -8 -6 -5 -6 6 -1 11 2 17 5 13 3 -3 4 -12 1 -19z m43 -18 c0 -5 -4 -10
-10 -10 -5 0 -10 5 -10 10 0 6 5 10 10 10 6 0 10 -4 10 -10z m-70 -83 c0 -5
-4 -5 -10 -2 -5 3 -10 14 -10 23 0 15 2 15 10 2 5 -8 10 -19 10 -23z m448 -79
c13 -15 29 -28 35 -28 6 0 0 12 -14 28 -14 15 -32 36 -40 47 -20 28 47 -25 91
-71 31 -33 32 -35 7 -19 -37 24 -44 13 -20 -28 15 -25 17 -34 7 -34 -11 0 -26
25 -29 47 0 3 -21 26 -47 51 -27 25 -48 54 -47 65 0 17 2 16 17 -6 9 -13 28
-37 40 -52z m-95 31 c7 -1 17 -1 23 0 15 2 76 -77 65 -84 -5 -3 -12 -1 -16 5
-3 5 -11 10 -17 10 -6 0 -5 -7 3 -17 10 -11 10 -14 2 -9 -8 4 -13 2 -13 -6 -1
-20 -40 32 -40 53 0 10 -5 21 -12 25 -7 5 -8 2 -3 -7 5 -8 5 -11 0 -7 -5 5 -9
23 -11 40 -1 18 0 25 3 16 2 -10 10 -19 16 -19z m218 -1 c9 -17 8 -18 -10 -6
-25 15 -36 39 -15 31 8 -3 19 -14 25 -25z m-521 -15 c22 -20 40 -41 40 -47 0
-6 -5 -3 -11 7 -6 9 -15 15 -20 12 -5 -4 -7 -11 -4 -16 4 -5 3 -19 0 -30 -6
-18 -13 -20 -41 -16 -18 3 -36 2 -39 -3 -8 -13 14 -52 26 -45 5 4 9 2 9 -4 0
-12 -41 -11 -57 2 -10 7 -13 3 -13 -17 0 -31 25 -96 37 -96 5 0 8 -18 8 -40
l0 -40 -22 24 c-25 27 -57 136 -43 150 4 4 6 15 3 22 -3 8 0 14 7 14 7 0 10 7
7 14 -4 9 7 29 24 47 22 24 27 35 19 44 -8 10 -8 19 2 34 17 28 22 27 68 -16z
m147 31 c-3 -3 -12 -4 -19 -1 -8 3 -5 6 6 6 11 1 17 -2 13 -5z m353 -41 c0 -9
-5 -11 -12 -6 -7 4 -17 8 -22 8 -5 0 -11 6 -14 14 -3 9 0 11 8 6 10 -6 12 -3
6 10 -7 18 -6 18 14 0 11 -10 20 -24 20 -32z m79 14 c0 -9 -2 -8 -6 1 -2 6
-10 9 -15 6 -7 -4 -8 -2 -4 5 9 13 26 5 25 -12z m81 -43 c0 -8 -4 -12 -10 -9
-5 3 -10 10 -10 16 0 5 5 9 10 9 6 0 10 -7 10 -16z m-431 -6 c7 11 9 11 14 -2
4 -9 15 -16 26 -16 33 0 52 -12 62 -37 5 -13 17 -27 26 -31 19 -8 28 -45 10
-39 -7 2 -23 23 -37 47 -14 24 -32 46 -40 48 -12 4 -13 3 -2 -10 7 -9 9 -23 6
-32 -5 -12 0 -19 14 -23 11 -3 23 -12 27 -20 4 -12 2 -13 -8 -5 -21 17 -39 -5
-26 -31 8 -13 8 -22 0 -30 -10 -10 -11 -9 -25 37 -3 8 0 16 6 18 7 3 8 10 4
17 -5 7 -13 10 -20 8 -6 -3 -17 2 -24 9 -7 8 -8 14 -2 14 5 0 2 9 -7 19 -23
25 -37 43 -47 59 -7 11 -4 11 13 0 18 -11 23 -11 30 0z m448 -20 c-3 -7 -5 -2
-5 12 0 14 2 19 5 13 2 -7 2 -19 0 -25z m-482 -41 c14 3 55 -65 49 -81 -3 -7
2 -16 10 -19 9 -4 16 -12 16 -18 0 -8 -4 -8 -15 1 -13 11 -14 10 -9 -6 4 -10
12 -26 18 -34 6 -8 -4 -4 -22 9 -38 26 -52 24 -22 -4 26 -23 26 -54 1 -52 -11
1 -17 6 -14 14 3 9 0 11 -10 7 -15 -5 -42 28 -31 38 2 3 -2 11 -11 18 -9 7
-19 10 -22 6 -4 -4 -2 -11 5 -15 7 -4 10 -14 7 -22 -3 -9 6 -21 22 -31 26 -16
26 -17 7 -18 -12 0 -25 7 -28 16 -3 9 -13 14 -21 10 -16 -6 -41 30 -37 51 2 7
-3 23 -9 35 -12 22 -12 22 14 5 34 -22 40 -21 26 4 -9 17 -8 20 1 14 10 -6 12
-1 8 19 -4 18 -1 29 9 33 8 3 11 13 7 25 -5 18 -4 19 18 7 12 -7 28 -12 33
-12z m345 -15 c0 -15 -2 -15 -10 -2 -13 20 -13 33 0 25 6 -3 10 -14 10 -23z
m-104 -37 c-1 -25 -16 -24 -16 2 0 13 -2 13 -17 2 -15 -13 -15 -12 -3 8 17 26
38 20 36 -12z m155 5 c-7 -3 -9 -14 -6 -22 4 -9 2 -19 -4 -23 -7 -3 -11 2 -11
14 0 29 11 52 22 45 7 -4 6 -9 -1 -14z m-61 -11 c0 -6 -4 -7 -10 -4 -5 3 -10
11 -10 16 0 6 5 7 10 4 6 -3 10 -11 10 -16z m-16 -59 c10 -13 9 -13 -6 -1 -10
7 -17 23 -17 35 1 20 2 20 6 1 3 -11 10 -27 17 -35z m-107 -16 c3 3 0 14 -8
23 -13 16 -12 17 4 4 17 -14 25 -67 8 -57 -5 4 -11 0 -14 -6 -3 -7 -10 2 -17
20 -13 34 -28 40 -48 20 -17 -17 -16 18 1 37 10 12 17 9 41 -16 15 -17 31 -28
33 -25z m57 5 c14 -28 14 -30 0 -25 -9 3 -18 6 -20 6 -2 0 -4 11 -4 25 0 33 5
32 24 -6z m164 -14 c-3 -3 -9 2 -12 12 -6 14 -5 15 5 6 7 -7 10 -15 7 -18z
m-262 -11 c-4 -9 0 -25 9 -34 9 -10 13 -24 8 -35 -5 -16 -9 -13 -19 16 -16 44
-17 69 -3 69 6 0 8 -7 5 -16z m-69 -26 c-3 -7 -5 -2 -5 12 0 14 2 19 5 13 2
-7 2 -19 0 -25z m31 -14 c-13 -13 -15 -13 -15 3 0 21 20 38 26 22 2 -6 -3 -17
-11 -25z m-214 -4 c8 -9 3 -11 -24 -5 -35 6 -35 6 -14 -12 30 -25 87 -113 74
-113 -6 0 -15 11 -20 24 -9 25 -25 39 -49 43 -26 4 -33 -9 -15 -28 9 -10 21
-16 27 -12 6 3 7 1 3 -6 -6 -9 -16 -7 -39 8 -33 21 -49 45 -24 35 19 -7 32 13
20 29 -5 7 -8 18 -7 25 1 6 2 16 3 21 2 12 51 5 65 -9z m520 -6 c3 -8 2 -12
-4 -9 -6 3 -10 10 -10 16 0 14 7 11 14 -7z m-394 -49 c0 -5 -5 -3 -10 5 -5 8
-10 20 -10 25 0 6 5 3 10 -5 5 -8 10 -19 10 -25z m625 -75 c-4 -19 -3 -21 5
-10 8 12 10 11 10 -7 0 -12 -4 -25 -10 -28 -5 -3 -10 0 -10 7 0 9 -3 9 -10 -2
-6 -10 -5 -17 5 -23 8 -4 12 -14 9 -21 -3 -8 -2 -16 3 -19 5 -3 7 -24 5 -46
-2 -23 -7 -39 -11 -36 -4 2 -5 -10 -3 -27 3 -18 8 -25 12 -18 5 8 9 7 13 -4 3
-8 2 -18 -3 -21 -15 -9 -12 -52 4 -68 11 -11 12 -17 3 -26 -9 -9 -9 -14 2 -20
9 -6 11 -16 6 -32 -7 -20 -6 -21 7 -8 9 9 16 35 16 67 1 35 7 59 19 70 15 16
16 15 9 -13 -4 -17 -10 -39 -13 -50 -5 -17 -4 -18 10 -7 9 8 18 9 21 4 3 -6
-1 -12 -9 -16 -17 -6 -21 -36 -5 -36 6 0 10 -8 11 -17 0 -10 6 -4 12 14 7 17
16 35 20 40 5 4 3 -5 -2 -20 -6 -16 -11 -39 -11 -53 0 -13 -4 -24 -10 -24 -5
0 -7 -13 -4 -28 4 -19 -1 -42 -15 -68 -12 -21 -21 -44 -21 -51 0 -16 -5 -16
-31 -3 -13 8 -19 22 -19 48 -1 30 -3 34 -11 20 -13 -24 -36 -23 -44 2 -3 11
-10 20 -14 20 -7 0 -29 53 -35 87 -2 10 -15 44 -29 75 -30 67 -94 132 -176
178 -51 29 -46 34 17 15 17 -6 22 -3 22 10 0 12 5 15 21 10 19 -6 20 -5 8 17
-7 12 -12 25 -11 28 1 3 -7 15 -18 27 -11 12 -16 25 -11 27 9 6 71 -76 71 -93
0 -6 12 -25 27 -41 20 -23 33 -29 60 -27 18 1 33 6 33 10 0 5 5 5 11 2 7 -5 9
17 5 72 -5 82 5 121 24 93 8 -11 9 -5 4 23 -3 20 -3 54 1 75 l7 37 14 -45 c8
-25 12 -56 9 -70z m-555 88 c0 -4 7 -8 15 -8 8 0 15 -7 15 -15 0 -9 -6 -12
-17 -8 -39 14 -57 40 -28 40 8 0 15 -4 15 -9z m-86 -39 c-8 -14 -30 1 -30 21
0 18 2 18 18 3 10 -8 15 -19 12 -24z m-14 -19 c8 -5 12 -11 10 -14 -3 -2 -14
2 -24 10 -22 15 -10 19 14 4z m-133 -52 c4 -7 8 -18 9 -23 2 -14 -56 -12 -81
3 -24 14 -11 16 15 2 26 -14 54 -2 39 16 -8 9 -8 14 -1 14 6 0 14 -6 19 -12z
m208 -28 c-3 -5 -10 -10 -16 -10 -5 0 -9 5 -9 10 0 6 7 10 16 10 8 0 12 -4 9
-10z m1015 -18 c0 -15 -2 -15 -10 -2 -13 20 -13 33 0 25 6 -3 10 -14 10 -23z
m-1287 -9 c-7 -2 -19 -2 -25 0 -7 3 -2 5 12 5 14 0 19 -2 13 -5z m-73 -34 c0
-5 -7 -9 -15 -9 -15 0 -20 12 -9 23 8 8 24 -1 24 -14z m977 -1 c-3 -8 -6 -5
-6 6 -1 11 2 17 5 13 3 -3 4 -12 1 -19z m-519 -9 c29 -16 32 -20 12 -16 -14 2
-33 8 -43 12 -26 11 -11 -20 16 -33 22 -10 21 -11 -4 -11 -15 -1 -32 -8 -39
-16 -7 -8 -24 -16 -39 -16 -23 -2 -24 -2 -3 -6 28 -6 28 -14 -3 -43 -14 -13
-25 -18 -25 -11 0 7 -5 9 -12 5 -8 -5 -8 -1 1 10 13 16 12 17 -15 11 l-29 -7
25 21 25 21 -35 1 c-24 1 -28 3 -12 6 12 2 20 9 17 14 -4 5 7 9 24 9 22 0 37
9 58 35 15 19 31 35 36 35 4 0 24 -9 45 -21z m-368 -8 c17 -2 -29 -41 -48 -41
-10 0 -24 -6 -30 -12 -7 -7 -32 -20 -55 -30 -23 -9 -34 -17 -25 -17 12 -1 16
-9 15 -28 -2 -24 2 -27 37 -29 37 -3 106 -40 106 -58 0 -4 -11 -5 -25 -2 -18
5 -25 2 -25 -9 0 -8 -5 -15 -11 -15 -5 0 -8 -4 -4 -9 3 -5 -2 -16 -10 -24 -8
-9 -15 -20 -15 -26 0 -13 -8 -17 -49 -26 -22 -5 -31 -4 -27 3 3 6 -3 13 -14
17 -20 6 -21 12 -24 92 0 23 -4 44 -8 48 -4 4 2 16 12 28 11 11 17 24 14 28
-2 4 -2 20 2 34 5 20 12 25 36 25 l30 0 -23 20 c-13 10 -19 19 -12 20 6 0 15
-4 18 -10 9 -15 25 -12 19 4 -4 10 3 16 23 18 25 3 67 2 93 -1z m270 5 c0 -2
-7 -6 -15 -10 -8 -3 -15 -1 -15 4 0 6 7 10 15 10 8 0 15 -2 15 -4z m200 -12
c0 -2 -9 -4 -20 -4 -11 0 -20 4 -20 9 0 5 9 7 20 4 11 -3 20 -7 20 -9z m-268
-1 c-6 -2 -10 -9 -6 -14 3 -5 -2 -9 -10 -9 -9 0 -16 7 -16 15 0 9 9 15 23 14
12 0 16 -3 9 -6z m715 -35 c-3 -8 -6 -5 -6 6 -1 11 2 17 5 13 3 -3 4 -12 1
-19z m-922 -34 c20 -19 25 -28 16 -34 -17 -10 -10 -55 9 -56 31 -2 35 -5 20
-14 -8 -5 -19 -5 -25 -1 -5 4 -31 14 -58 21 -26 7 -50 16 -52 21 -9 13 15 21
30 9 10 -8 19 -8 34 2 27 16 26 24 -1 31 -18 5 -19 8 -8 22 11 13 10 14 -5 9
-13 -5 -16 -4 -11 4 11 18 20 15 51 -14z m892 4 c-3 -8 -6 -5 -6 6 -1 11 2 17
5 13 3 -3 4 -12 1 -19z m44 -5 c-8 -15 -10 -15 -11 -2 0 17 10 32 18 25 2 -3
-1 -13 -7 -23z m619 23 c0 -5 -84 -61 -95 -62 -5 -1 -20 -5 -33 -9 -21 -7 -21
-8 -5 -21 17 -13 17 -13 -3 -14 -26 0 -49 -25 -38 -41 5 -9 1 -10 -14 -7 -15
4 -22 2 -22 -8 0 -15 -21 -15 -32 1 -4 6 -8 17 -8 25 0 13 1 13 10 0 7 -11 10
-4 10 28 0 23 5 42 10 42 6 0 10 15 10 33 0 24 3 28 10 17 5 -8 10 -26 10 -40
l1 -25 14 25 c8 14 14 19 15 11 0 -11 3 -12 11 -4 6 6 18 9 25 6 8 -3 16 1 19
9 3 8 19 15 35 16 16 0 37 5 47 11 20 12 23 13 23 7z m-1640 -36 c0 -5 -4 -10
-10 -10 -5 0 -10 5 -10 10 0 6 5 10 10 10 6 0 10 -4 10 -10z m488 -7 c-3 -19
19 -25 39 -11 15 12 27 -8 17 -30 -4 -9 -6 -25 -5 -34 1 -9 -5 -40 -13 -68 -8
-28 -11 -48 -6 -45 5 3 15 -3 22 -13 7 -10 22 -24 33 -30 20 -11 20 -11 -1
-12 -11 0 -30 9 -42 20 -12 11 -24 20 -28 20 -12 0 -33 34 -34 55 0 16 -2 17
-10 5 -11 -17 -18 -11 -27 21 -12 49 -6 80 22 109 33 35 37 36 33 13z m562 -3
c0 -5 -5 -10 -11 -10 -5 0 -7 5 -4 10 3 6 8 10 11 10 2 0 4 -4 4 -10z m785
-27 c25 -38 13 -37 -18 2 -15 19 -21 32 -13 29 8 -3 22 -17 31 -31z m-1855 -3
c0 -5 -2 -10 -4 -10 -3 0 -8 5 -11 10 -3 6 -1 10 4 10 6 0 11 -4 11 -10z m157
-6 c-3 -3 -12 -4 -19 -1 -8 3 -5 6 6 6 11 1 17 -2 13 -5z m903 -23 c-14 -27
-32 -37 -23 -14 6 15 22 32 31 33 1 0 -2 -9 -8 -19z m-680 -45 c0 -65 29 -136
75 -182 25 -24 51 -44 60 -44 8 0 15 -4 15 -8 0 -11 8 -12 103 -19 43 -2 90
-1 105 4 15 5 35 8 44 5 15 -3 15 -7 5 -30 -23 -53 -46 -64 -83 -37 -12 8 -72
28 -135 46 -121 33 -169 53 -182 76 -5 7 -12 11 -18 8 -8 -6 -10 1 -8 21 0 4
-12 13 -28 21 -50 24 -67 82 -24 83 13 1 13 3 -4 16 -20 15 -20 15 1 20 11 3
28 19 38 35 21 36 36 29 36 -15z m422 -21 c2 -19 0 -35 -5 -35 -4 0 -6 -4 -2
-9 3 -5 -4 -26 -16 -46 -22 -38 -71 -65 -102 -57 -22 6 -16 28 7 26 10 -1 16
6 16 18 0 10 5 16 10 13 18 -11 32 5 18 22 -10 13 -8 19 11 35 18 13 21 22 13
30 -8 8 -6 17 5 35 20 30 39 16 45 -32z m-640 -92 c2 -12 7 -53 12 -101 6 -53
9 -58 44 -65 19 -4 41 -24 70 -63 23 -31 42 -63 42 -70 0 -8 5 -14 10 -14 6 0
10 -7 10 -15 0 -8 -4 -15 -10 -15 -5 0 -10 4 -10 10 0 15 -46 23 -68 11 -16
-8 -21 -7 -26 4 -8 22 -72 20 -82 -2 -4 -10 -8 -22 -8 -26 -1 -4 -7 -12 -15
-16 -7 -5 -10 -14 -6 -21 5 -8 -3 -10 -26 -8 -21 2 -33 8 -32 16 2 6 -3 12
-10 12 -7 0 -21 10 -31 21 -29 35 -43 8 -16 -31 55 -78 165 -165 147 -116 -3
8 -1 17 6 20 7 2 3 5 -8 6 -11 1 1 8 27 16 34 10 52 23 63 43 15 31 62 46 83
27 28 -27 42 -36 55 -36 7 0 17 -4 23 -10 12 -12 56 -1 47 13 -4 7 0 8 11 4
10 -4 24 -7 32 -7 8 0 13 -5 12 -11 -2 -6 3 -14 11 -17 9 -3 11 0 7 9 -4 8 2
4 13 -9 11 -13 25 -21 30 -18 5 3 11 -3 14 -14 5 -20 37 -29 37 -11 0 14 40
18 74 9 20 -5 33 -4 39 5 6 8 7 7 3 -5 -5 -18 10 -36 16 -18 1 5 14 7 28 3
l25 -7 -30 -8 c-20 -5 -36 -3 -52 8 -20 13 -23 13 -23 0 0 -10 -6 -13 -15 -10
-9 4 -23 -4 -36 -20 -11 -14 -28 -26 -37 -26 -18 0 -45 -34 -35 -44 4 -3 19
-6 34 -6 15 0 31 -4 34 -10 3 -5 15 -10 26 -10 10 0 19 -4 19 -9 0 -5 14 -12
30 -16 17 -4 30 -11 30 -16 0 -12 -44 -11 -109 1 -42 8 -55 7 -67 -4 -12 -13
-9 -15 23 -18 26 -2 38 -8 38 -18 0 -9 12 -17 30 -20 16 -3 34 -14 40 -26 6
-12 17 -19 25 -16 8 3 12 1 7 -4 -4 -4 -26 -7 -48 -5 -37 2 -40 0 -26 -14 9
-8 23 -15 32 -15 9 0 25 -5 36 -10 13 -8 25 -7 40 0 17 10 24 8 39 -10 10 -12
24 -19 29 -15 17 10 13 23 -9 30 -11 4 -18 10 -15 15 3 5 -7 8 -21 7 -15 -1
-29 3 -31 9 -2 7 14 9 51 6 116 -9 139 21 49 64 l-58 28 40 9 c40 10 58 24 49
39 -3 4 0 9 5 9 6 1 17 2 24 3 27 4 87 -51 114 -103 34 -69 38 -90 15 -90 -9
0 -31 -1 -49 -2 -42 -1 -63 -24 -32 -34 15 -5 26 -2 33 7 6 8 17 13 24 11 17
-6 15 -23 -4 -23 -11 0 -14 -8 -12 -27 2 -20 -4 -34 -19 -46 -29 -23 -29 -37
-2 -37 12 0 19 -5 17 -12 -7 -21 14 -37 33 -25 19 12 83 -9 74 -23 -3 -5 0
-12 6 -15 6 -4 13 2 16 14 5 18 7 19 21 5 11 -12 26 -14 54 -10 23 4 38 2 38
-4 0 -14 32 -12 53 5 14 10 26 11 47 4 22 -8 36 -6 60 6 18 9 39 14 47 11 11
-5 13 -2 9 10 -4 11 -2 15 8 11 8 -3 17 0 20 8 2 7 20 15 38 17 20 2 32 8 30
16 -1 6 2 12 8 12 5 0 10 -4 10 -10 0 -5 7 -10 16 -10 9 0 13 5 8 13 -3 6 9
-4 28 -23 19 -19 33 -38 31 -42 -5 -9 -33 1 -53 18 -15 13 -17 6 -11 -48 1 -4
8 -5 18 -1 14 6 14 3 -2 -25 -15 -24 -22 -29 -32 -20 -9 7 -13 7 -13 0 0 -7
-7 -9 -17 -5 -12 5 -15 2 -10 -10 9 -24 -2 -21 -29 9 -13 14 -24 21 -24 15 0
-5 5 -13 10 -16 6 -3 10 -12 10 -18 0 -7 -14 4 -31 23 l-30 35 16 -32 c13 -28
13 -33 1 -33 -17 0 -16 -51 2 -73 8 -9 11 -25 8 -35 -4 -11 0 -24 9 -32 17
-14 21 -35 5 -25 -15 9 -12 -8 5 -31 19 -25 19 -53 0 -60 -8 -4 -12 -10 -9
-15 3 -5 -2 -12 -12 -16 -14 -5 -14 -8 7 -24 13 -10 21 -21 17 -25 -4 -4 -14
-1 -23 6 -8 7 -15 9 -15 5 0 -4 -7 -2 -15 5 -12 10 -15 10 -15 -3 0 -9 5 -19
10 -22 12 -8 12 -16 0 -35 -7 -12 -11 -12 -28 3 -11 10 -25 17 -32 15 -8 -2
-16 10 -20 27 -4 17 -12 39 -18 50 -6 11 -14 29 -17 40 l-7 20 -8 -20 c-5 -11
-9 -35 -9 -53 -1 -18 -5 -42 -11 -52 -7 -13 -5 -24 10 -43 14 -17 17 -28 10
-32 -7 -4 -14 2 -17 14 -3 12 -11 21 -17 21 -15 0 -46 -52 -52 -87 -6 -34 -13
-45 -24 -38 -9 6 -6 24 13 62 6 13 7 26 2 30 -4 5 -10 2 -12 -4 -3 -7 -11 -13
-18 -13 -10 0 -13 -13 -12 -45 1 -25 5 -45 10 -45 4 0 7 -7 7 -15 0 -8 -4 -15
-10 -15 -10 0 -14 20 -12 50 3 32 -7 43 -23 26 -8 -8 -12 -22 -8 -31 5 -14 2
-16 -15 -11 -17 6 -21 3 -19 -14 1 -12 6 -18 14 -15 7 3 20 8 28 11 8 3 15 1
15 -5 0 -6 -11 -16 -24 -21 -13 -5 -27 -13 -30 -19 -4 -6 -13 -8 -21 -4 -11 3
-19 -5 -26 -26 -11 -31 -23 -39 -34 -21 -3 5 -12 7 -20 3 -18 -6 -18 -3 -5 31
12 33 1 33 -36 -1 -62 -59 -75 -68 -68 -50 5 13 2 16 -11 11 -10 -4 -21 -1
-26 7 -6 10 -9 10 -9 2 0 -7 -7 -13 -15 -13 -8 0 -15 5 -15 10 0 6 -7 10 -16
10 -14 0 -14 -3 -4 -15 11 -13 8 -19 -13 -39 -24 -22 -30 -23 -57 -13 -25 10
-33 9 -41 -3 -8 -13 -11 -13 -20 3 -12 21 -29 22 -29 2 0 -18 -20 -20 -21 -2
0 6 -4 3 -8 -7 -8 -21 -94 -49 -122 -40 -9 3 -24 -2 -32 -11 -21 -20 -27 -19
-27 5 0 22 -26 28 -33 8 -3 -10 -11 -9 -33 4 -16 9 -29 20 -30 25 -3 34 -44
62 -44 31 0 -6 -9 -2 -20 9 -10 12 -28 24 -40 28 -11 3 -20 11 -20 16 0 6 -5
7 -10 4 -6 -3 -13 0 -16 8 -3 8 -14 17 -25 20 -12 3 -17 11 -13 21 5 13 1 15
-25 10 -30 -6 -43 7 -21 21 24 15 9 35 -27 35 l-37 0 22 20 c27 26 28 40 2 40
-20 0 -26 11 -13 23 13 14 12 58 -3 64 -20 7 -18 23 4 23 13 1 12 4 -7 14 -17
10 -20 15 -11 21 10 6 9 11 -5 22 -18 13 -18 14 2 30 l20 16 -26 23 c-25 21
-25 23 -8 41 20 23 22 33 6 33 -7 0 -18 8 -24 17 -11 15 -10 19 13 30 27 12
27 12 5 18 -26 8 -31 25 -8 25 8 0 15 5 15 10 0 6 -7 10 -15 10 -24 0 -17 20
11 30 14 6 23 14 20 19 -3 5 1 12 10 15 12 5 14 9 5 20 -6 7 -10 29 -9 47 0
19 -1 46 -5 62 -3 15 -1 27 4 27 5 0 9 5 9 11 0 7 -9 9 -21 6 -16 -4 -18 -3
-8 9 9 11 9 14 -1 14 -9 0 -9 4 1 17 12 15 12 16 -3 10 -36 -14 -53 -17 -32
-6 26 13 30 58 5 60 -13 1 -13 2 2 6 19 5 24 23 6 23 -6 0 -9 7 -6 15 4 8 2
17 -4 21 -5 3 -7 15 -3 26 6 19 3 20 -32 15 -22 -3 -50 -8 -64 -11 -14 -3 7 5
45 19 44 15 61 24 45 25 -24 1 -25 1 -5 16 17 12 17 16 6 24 -12 7 -12 11 -2
24 16 19 6 36 -22 37 -15 1 -17 3 -6 6 13 3 15 12 8 46 -4 23 -5 45 -3 49 3 5
1 8 -5 8 -6 0 -9 13 -7 29 2 19 -2 32 -10 35 -16 6 -20 106 -5 106 6 0 9 9 8
20 -1 14 -9 20 -27 20 l-25 1 28 15 c15 8 27 18 28 22 3 33 11 58 20 60 6 3 6
9 -2 18 -8 10 -8 14 -1 14 6 0 9 7 6 15 -8 20 32 20 52 0 8 -8 22 -11 32 -8
27 11 72 55 65 65 -3 6 4 8 18 4 21 -6 22 -5 6 4 -14 9 -16 15 -6 26 12 15 28
19 31 7z m200 -215 c-9 -9 -15 -9 -24 0 -9 9 -7 12 12 12 19 0 21 -3 12 -12z
m252 -259 c-9 -16 -20 -10 -21 12 -2 17 1 18 12 9 8 -7 12 -16 9 -21z m151
-59 c-3 -5 -12 -10 -18 -10 -7 0 -6 4 3 10 19 12 23 12 15 0z m353 -152 c-6
-18 -28 -21 -28 -4 0 9 7 16 16 16 9 0 14 -5 12 -12z m237 -18 c10 -11 14 -20
9 -20 -5 0 -15 9 -22 20 -7 11 -11 20 -9 20 2 0 12 -9 22 -20z m-9 -35 c16
-30 9 -30 -22 -2 -23 21 -24 25 -8 24 10 -1 24 -11 30 -22z m-15 -50 c24 -13
54 -29 65 -34 12 -5 24 -17 28 -26 5 -15 4 -15 -16 0 -13 8 -35 15 -50 15 -16
0 -28 5 -28 10 0 6 -7 10 -15 10 -8 0 -15 7 -15 15 0 8 -4 15 -10 15 -5 0 -7
-7 -4 -15 6 -14 -7 -15 -44 -6 -1 1 2 10 8 21 14 26 28 25 81 -5z m12 -82 c-4
-10 -9 -11 -19 -2 -19 15 -18 18 5 16 11 -1 17 -6 14 -14z m-47 -40 c-10 -10
-19 5 -10 18 6 11 8 11 12 0 2 -7 1 -15 -2 -18z m103 -17 c10 -12 8 -13 -8 -9
-12 3 -18 9 -15 14 7 12 10 11 23 -5z m306 -76 c12 -23 12 -30 3 -30 -22 0
-34 14 -34 38 0 31 13 28 31 -8z m-453 -582 c-7 -7 -12 -8 -12 -2 0 14 12 26
19 19 2 -3 -1 -11 -7 -17z m-1022 -182 c0 -3 -4 -8 -10 -11 -5 -3 -10 -1 -10
4 0 6 5 11 10 11 6 0 10 -2 10 -4z m622 -28 c-7 -7 -12 -8 -12 -2 0 14 12 26
19 19 2 -3 -1 -11 -7 -17z m-102 -38 c0 -5 -4 -10 -10 -10 -5 0 -10 5 -10 10
0 6 5 10 10 10 6 0 10 -4 10 -10z"/>
<path d="M3948 3233 c7 -3 16 -2 19 1 4 3 -2 6 -13 5 -11 0 -14 -3 -6 -6z"/>
<path d="M3978 3033 c7 -3 16 -2 19 1 4 3 -2 6 -13 5 -11 0 -14 -3 -6 -6z"/>
<path d="M3694 2551 c20 -22 26 -25 26 -13 0 4 -10 13 -22 21 -23 14 -23 14
-4 -8z"/>
<path d="M4457 2353 c-4 -3 -7 -11 -7 -17 0 -6 5 -5 12 2 6 6 9 14 7 17 -3 3
-9 2 -12 -2z"/>
<path d="M4530 2022 c0 -7 -3 -11 -7 -9 -5 3 -9 -9 -10 -26 -2 -21 0 -27 6
-18 5 7 14 10 20 7 14 -9 14 -36 0 -36 -5 0 -7 6 -3 13 4 6 3 9 -1 4 -15 -13
-17 -49 -3 -41 28 17 34 29 30 53 -5 29 -32 73 -32 53z"/>
<path d="M4530 1891 c0 -6 4 -13 10 -16 6 -3 7 1 4 9 -7 18 -14 21 -14 7z"/>
<path d="M3578 2308 c8 -8 17 -8 34 0 22 10 21 11 -11 11 -27 1 -32 -2 -23
-11z"/>
<path d="M3510 2151 c0 -5 7 -15 17 -22 15 -13 15 -12 4 9 -12 23 -21 28 -21
13z"/>
<path d="M3517 1724 c-3 -16 1 -28 9 -31 20 -7 33 5 27 26 -8 30 -30 33 -36 5z"/>
<path d="M4460 1171 c0 -6 5 -13 10 -16 6 -3 10 1 10 9 0 9 -4 16 -10 16 -5 0
-10 -4 -10 -9z"/>
<path d="M4485 299 c-11 -17 1 -21 15 -4 8 9 8 15 2 15 -6 0 -14 -5 -17 -11z"/>
</g>
</svg>
